<svg width="154" height="60" viewBox="0 0 154 60" fill="none" xmlns="http://www.w3.org/2000/svg">
<path d="M60.25 48.415C58.2969 48.415 57.1006 47.2188 57.1006 45.1436V15.627C57.1006 13.5518 58.2969 12.3555 60.25 12.3555C62.2275 12.3555 63.3994 13.5518 63.3994 15.627V28.9326H63.6191L77.7793 13.6494C78.6338 12.7217 79.3906 12.3311 80.416 12.3311C82.1006 12.3311 83.3457 13.6006 83.3457 15.2119C83.3457 16.0664 83.0527 16.7256 82.3203 17.5068L71.7246 28.5664L83.3701 42.6533C84.2246 43.7031 84.5908 44.582 84.5908 45.4121C84.5908 47.1211 83.2725 48.4395 81.5635 48.4395C80.3184 48.4395 79.4639 47.9756 78.4873 46.7549L67.0615 32.79L63.3994 36.6719V45.1436C63.3994 47.2188 62.2275 48.415 60.25 48.415ZM91.8906 18.4834C90.0107 18.4834 88.5215 17.0186 88.5215 15.1875C88.5215 13.332 90.0107 11.8916 91.8906 11.8916C93.7949 11.8916 95.2842 13.332 95.2842 15.1875C95.2842 17.0186 93.7949 18.4834 91.8906 18.4834ZM91.8906 48.4883C90.0352 48.4883 88.8633 47.2676 88.8633 45.29V24.8066C88.8633 22.8535 90.0352 21.6084 91.8906 21.6084C93.7461 21.6084 94.9424 22.8535 94.9424 24.8311V45.29C94.9424 47.2676 93.7461 48.4883 91.8906 48.4883ZM103.072 48.4883C101.29 48.4883 100.045 47.3408 100.045 45.29V24.6846C100.045 22.8047 101.144 21.6084 102.95 21.6084C104.732 21.6084 105.953 22.8047 105.953 24.6846V26.4912H106.075C107.467 23.415 110.152 21.6328 114.132 21.6328C119.845 21.6328 123.092 25.2949 123.092 31.2764V45.29C123.092 47.3408 121.847 48.4883 120.064 48.4883C118.282 48.4883 117.013 47.3408 117.013 45.29V32.4971C117.013 28.835 115.304 26.7842 111.837 26.7842C108.346 26.7842 106.124 29.2988 106.124 33.0098V45.29C106.124 47.3408 104.854 48.4883 103.072 48.4883ZM139.425 48.5127C131.832 48.5127 126.9 43.459 126.9 35.0605C126.9 26.7109 131.881 21.584 139.425 21.584C146.969 21.584 151.949 26.6865 151.949 35.0605C151.949 43.459 147.018 48.5127 139.425 48.5127ZM139.425 43.7031C143.282 43.7031 145.772 40.5781 145.772 35.0605C145.772 29.5674 143.282 26.418 139.425 26.418C135.592 26.418 133.077 29.5674 133.077 35.0605C133.077 40.5781 135.567 43.7031 139.425 43.7031Z" fill="white"/>
<path d="M40 38.0895V21.2006C39.9992 20.4602 39.8038 19.7329 39.4332 19.0919C39.0627 18.4509 38.5301 17.9186 37.8889 17.5484L23.1111 9.10391C22.4693 8.73333 21.7412 8.53824 21 8.53824C20.2588 8.53824 19.5307 8.73333 18.8889 9.10391L4.11111 17.5484C3.46989 17.9186 2.93729 18.4509 2.56675 19.0919C2.19621 19.7329 2.00076 20.4602 2 21.2006V38.0895C2.00076 38.8299 2.19621 39.5571 2.56675 40.1981C2.93729 40.8391 3.46989 41.3715 4.11111 41.7417L18.8889 50.1861C19.5307 50.5567 20.2588 50.7518 21 50.7518C21.7412 50.7518 22.4693 50.5567 23.1111 50.1861L37.8889 41.7417C38.5301 41.3715 39.0627 40.8391 39.4332 40.1981C39.8038 39.5571 39.9992 38.8299 40 38.0895Z" stroke="white" stroke-width="4" stroke-linecap="round" stroke-linejoin="round"/>
<path d="M2.56999 19.0051L21 29.6662L39.43 19.0051" stroke="white" stroke-width="4" stroke-linecap="round" stroke-linejoin="round"/>
<path d="M21 50.925V29.645" stroke="white" stroke-width="4" stroke-linecap="round" stroke-linejoin="round"/>
</svg>
